<svg xmlns="http://www.w3.org/2000/svg" viewBox="0 0 320 320" fill="none">
  <g stroke="#ffffff" stroke-linecap="round" stroke-linejoin="round">
    <path d="M30 177c31-24 84-37 145-38 49-1 95 7 121 20 9 5 11 12 4 18-16 15-54 24-106 29-73 6-149-3-173-18-8-4-6-9 9-11Z" stroke-width="5.5"/>
    <path d="M52 183c19-14 61-23 111-25 71-4 127 8 137 19" stroke-width="3.5" opacity=".92"/>
    <path d="M86 191c41 7 100 9 150 5" stroke-width="2.8" opacity=".88"/>
    <path d="M110 135c-1-32 13-59 42-75 13-7 27-8 38-2 21 11 35 37 34 67" stroke-width="4.5"/>
    <path d="M109 136c15-7 35-11 60-12 27-1 49 1 66 7" stroke-width="3.2" opacity=".92"/>
    <path d="M119 146c20-3 47-4 77-2 18 1 34 3 47 6" stroke-width="2.7" opacity=".86"/>
    <path d="M118 191c5 18 16 33 31 46 11 10 24 18 41 23 16 5 31 4 42-2" stroke-width="4.8"/>
    <path d="M242 198c2 23-2 42-12 58-8 11-19 19-32 24" stroke-width="4.2"/>
    <path d="M139 200c-9 12-16 28-19 45" stroke-width="3.6"/>
    <path d="M118 244c9-6 19-7 29-5" stroke-width="3"/>
    <path d="M128 260c14 6 33 8 57 6 25-2 43-8 56-18" stroke-width="4.2"/>
    <path d="M145 277c10 6 24 9 42 8 13-1 25-3 36-8" stroke-width="3.4"/>
    <path d="M160 209c-11 3-21 11-27 22 8 8 19 8 29-1" stroke-width="4"/>
    <path d="M199 208c10 4 18 11 23 21-6 8-15 10-24 4-4-7-4-15 1-25Z" stroke-width="4"/>
    <path d="M178 222c-3 9-2 18 4 26 7 0 13-4 18-11-4-8-11-13-22-15Z" stroke-width="3.8"/>
    <path d="M150 246c12 10 31 15 53 14 20-1 35-6 47-15" stroke-width="4.2"/>
    <path d="M149 247c1 8 1 17 0 27" stroke-width="3"/>
    <path d="M159 248c1 8 1 17 0 27" stroke-width="3"/>
    <path d="M169 249c1 8 1 17 0 27" stroke-width="3"/>
    <path d="M179 249c1 8 1 17 0 27" stroke-width="3"/>
    <path d="M189 248c1 8 1 17 0 27" stroke-width="3"/>
    <path d="M199 246c1 8 1 17 0 27" stroke-width="3"/>
    <path d="M208 243c1 8 1 17 0 27" stroke-width="3"/>
    <path d="M133 238c8 4 12 11 13 19" stroke-width="2.8" opacity=".84"/>
    <path d="M223 233c-7 5-12 12-14 21" stroke-width="2.8" opacity=".84"/>
    <path d="M147 153c8-12 19-18 33-19 12 0 22 5 30 15" stroke-width="3.5"/>
  </g>
</svg>
