<svg xmlns="http://www.w3.org/2000/svg" viewBox="0 0 120 120">
  <g fill="#000" transform="rotate(14 60 60)">
    <defs>
      <path id="cannabis-leaflet" d="M60 64L56 58L50 54L46 48L42 42L39 35L37 28L36 21L36 14L37 8L40 11L43 17L46 23L49 29L52 35L55 42L57 49L59 57L60 62L61 57L63 49L65 42L68 35L71 29L74 23L77 17L80 11L83 8L84 14L84 21L83 28L81 35L78 42L74 48L70 54L64 58Z"/>
    </defs>
    <path d="M58 64h4v40c0 6-1 10-3 13c-1-3-1-7-1-13z"/>
    <use href="#cannabis-leaflet" transform="translate(0 -6) scale(0.72 1.38)"/>
    <use href="#cannabis-leaflet" transform="rotate(-42 60 66) translate(-1 -2) scale(0.9 1.12)"/>
    <use href="#cannabis-leaflet" transform="rotate(42 60 66) translate(1 -2) scale(0.9 1.12)"/>
    <use href="#cannabis-leaflet" transform="rotate(-84 60 66) translate(-2 8) scale(0.92 0.82)"/>
    <use href="#cannabis-leaflet" transform="rotate(84 60 66) translate(2 8) scale(0.92 0.82)"/>
    <use href="#cannabis-leaflet" transform="rotate(-118 60 66) translate(-3 18) scale(0.58 0.72)"/>
    <use href="#cannabis-leaflet" transform="rotate(118 60 66) translate(3 18) scale(0.58 0.72)"/>
  </g>
</svg>
